<svg width="110" height="32" viewBox="0 0 110 32" fill="none" xmlns="http://www.w3.org/2000/svg">
<path d="M0 11.2719C0 8.23296 0.857843 5.91075 2.57366 4.30531C4.28948 2.69988 7.1145 1.89709 11.049 1.89709H21.4324V6.62753H11.049C9.42192 6.62753 8.20909 7.00026 7.41036 7.74562C6.64127 8.49098 6.25666 9.66651 6.25666 11.2719V15.4433H19.4799V20.1737H6.25666V31.9998H0V11.2719ZM36.2587 31.9998C32.4721 31.9998 29.7506 31.197 28.094 29.5916C26.4669 27.9862 25.6535 25.664 25.6535 22.625V1.89709H31.9101V22.625C31.9101 24.2018 32.2651 25.3772 32.9751 26.1513C33.6851 26.8966 34.7795 27.2694 36.2587 27.2694H46.1984V31.9998H36.2587ZM51.0728 1.89709H57.3294V31.9998H51.0728V1.89709Z" fill="#E6E6E6"/>
<path d="M100.617 21.3245C99.228 25.2965 96.663 26.7838 95.1169 27.004V31.9368C101.592 31.3181 104.423 25.0736 105.15 21.8653C105.152 21.8166 105.167 21.7898 105.167 21.7898C105.161 21.8147 105.156 21.8399 105.15 21.8653C105.143 22.0259 105.272 22.4243 106.511 22.8815C108.127 23.4771 109.163 21.7221 108.964 20.8619C108.764 20.0016 105.935 14.9375 105.069 14.0181C104.202 13.0988 103.148 13.4792 102.729 13.7842C102.31 14.0892 97.5301 17.592 97.0694 19.6883C96.6087 21.7846 98.2365 22.0087 99.1081 21.8587L100.617 21.3245Z" fill="#E6E6E6"/>
<path d="M105.177 21.8653C104.45 25.0736 101.544 32 94.2104 31.3333L95.1443 27.4298C96.8771 26.6666 99.2554 25.2965 100.645 21.3245L99.1355 21.8587C98.2639 22.0087 96.6361 21.7846 97.0968 19.6883C97.5575 17.592 102.337 14.0892 102.756 13.7842C103.175 13.4792 104.23 13.0988 105.096 14.0181C105.963 14.9375 108.792 20.0016 108.991 20.8619C109.19 21.7221 108.155 23.4771 106.539 22.8815C105.299 22.4243 105.17 22.0259 105.177 21.8653ZM105.177 21.8653C105.179 21.8166 105.194 21.7898 105.194 21.7898C105.189 21.8147 105.183 21.8399 105.177 21.8653Z" stroke="#E6E6E6"/>
<path d="M104.383 9.8656C107.194 9.8656 109.473 7.65711 109.473 4.9328C109.473 2.20849 107.194 0 104.383 0C101.572 0 99.2933 2.20849 99.2933 4.9328C99.2933 7.65711 101.572 9.8656 104.383 9.8656Z" fill="#E6E6E6"/>
<path d="M77.8244 2.0238C86.3657 2.0238 93.2898 8.73418 93.2898 17.0119C93.2898 25.2897 86.3657 32 77.8244 32C69.283 32 62.3589 25.2897 62.3589 17.0119C62.3589 8.73418 69.283 2.0238 77.8244 2.0238ZM77.8896 8.22142C72.9883 8.22142 69.0149 12.0722 69.0149 16.8222C69.0149 21.5722 72.9883 25.423 77.8896 25.423C82.7909 25.423 86.7643 21.5722 86.7643 16.8222C86.7643 12.0722 82.7909 8.22142 77.8896 8.22142Z" fill="#E6E6E6"/>
<path d="M74.3658 15.7895V13.5433C74.3658 13.3616 74.5576 13.2392 74.7298 13.3108L82.6162 16.5896C82.8269 16.6772 82.8269 16.9669 82.6162 17.0545L74.7298 20.3333C74.5576 20.4049 74.3658 20.2825 74.3658 20.1008V17.8547C74.3658 17.7278 74.4627 17.6207 74.5924 17.6038L78.7112 17.0729C79.0133 17.0338 79.0133 16.6102 78.7112 16.5712L74.5924 16.0401C74.4627 16.0234 74.3658 15.9163 74.3658 15.7895Z" fill="#E6E6E6"/>
<path d="M95.2475 26.9407H78.0201V32H95.2475V26.9407Z" fill="#E6E6E6"/>
</svg>
